HIERARCHY
ROOT pelvis
{
  OFFSET 0 100 0
  CHANNELS 6 Xposition Yposition Zposition Zrotation Xrotation Yrotation
  JOINT pelvis_right_femur
  {
    OFFSET -10.78128 -3.44521 -0.5502486
    CHANNELS 3 Zrotation Xrotation Yrotation
    JOINT right_femur_tibia
    {
      OFFSET -0.8047443 -44.0398 -0.1307829
      CHANNELS 3 Zrotation Xrotation Yrotation
      JOINT right_tibia_foot
      {
        OFFSET 3.006224 -47.83518 -5
        CHANNELS 3 Zrotation Xrotation Yrotation
        End Site
        {
          OFFSET 0 -5 15
        }
      }
    }
  }
  JOINT pelvis_left_femur
  {
    OFFSET 10.78128 -3.44521 -0.5502486
    CHANNELS 3 Zrotation Xrotation Yrotation
    JOINT left_femur_tibia
    {
      OFFSET 0.8047443 -44.0398 -0.1307829
      CHANNELS 3 Zrotation Xrotation Yrotation
      JOINT left_tibia_foot
      {
        OFFSET -4.370144 -48.10324 -4.275266
        CHANNELS 3 Zrotation Xrotation Yrotation
        End Site
        {
          OFFSET 0 -5 15
        }
      }
    }
  }
  JOINT pelvis_spine1
  {
    OFFSET 0 6.468898 -3.129235
    CHANNELS 3 Zrotation Xrotation Yrotation
    JOINT spine1
    {
      OFFSET 0 23.15396 4.99043
      CHANNELS 3 Zrotation Xrotation Yrotation
      JOINT spine2
      {
        OFFSET 0 20.79997 -5.064912
        CHANNELS 3 Zrotation Xrotation Yrotation
        JOINT neck
        {
          OFFSET 0 14.38658 9.616178
          CHANNELS 3 Zrotation Xrotation Yrotation
          End Site
          {
            OFFSET 0 20 0
          }
        }
      }
      JOINT right_manubrium
      {
        OFFSET -5.722621 16.35077 3.967754
        CHANNELS 3 Zrotation Xrotation Yrotation
        JOINT right_clavicle
        {
          OFFSET -13.16364 1.694482 -4.693211
          CHANNELS 3 Zrotation Xrotation Yrotation
          JOINT right_humerus
          {
            OFFSET -28.5034 -0.3100689 -2.792744
            CHANNELS 3 Zrotation Xrotation Yrotation
            JOINT right_radius
            {
              OFFSET -25.15693 0.02248979 -1.271978
              CHANNELS 3 Zrotation Xrotation Yrotation
              End Site
              {
                OFFSET -15 0 0
              }
            }
          }
        }
      }
      JOINT left_manubrium
      {
        OFFSET 5.722621 16.35077 3.967754
        CHANNELS 3 Zrotation Xrotation Yrotation
        JOINT left_clavicle
        {
          OFFSET 13.16364 1.694482 -4.693211
          CHANNELS 3 Zrotation Xrotation Yrotation
          JOINT left_humerus
          {
            OFFSET 29.39168 -1.063119 -2.237045
            CHANNELS 3 Zrotation Xrotation Yrotation
            JOINT left_radius
            {
              OFFSET 24.59957 -0.9528479 0.9047498
              CHANNELS 3 Zrotation Xrotation Yrotation
              End Site
              {
                OFFSET 15 -0 -0
              }
            }
          }
        }
      }
    }
  }
}
MOTION
Frames: 13
Frame Time: 0.0416666666667
0 103.5113 0 -0.01779318 -0.8927436 0.1163558 4.667194 -15.28829 8.749799 5.821872e-06 35.91401 -3.635262e-06 -8.02148 -18.35183 -3.241747 -6.153053 7.369666 -22.95657 -3.430259e-06 5.243726 -4.88578e-07 5.980736 -17.10277 24.76727 -2.972368 -2.385012 4.098475 2.451944 8.344466 -7.197568 1.420653 22.12814 6.591743 2.767029 -24.24715 9.322196 5.401728 -20.46853 11.20238 84.48121 34.91411 -16.42965 -1.643603e-06 6.268463e-07 18.34889 -5.700499 8.425586 4.386856 4.955251 -18.08381 -1.446063 -96.47263 30.44482 26.00253 -3.538755e-07 -9.269445e-07 -13.30458 3.056215 17.63348 10.08321
0.3801494 103.5311 1.419908 0.04855648 -0.8672435 0.3274979 4.613361 -16.90138 8.922935 5.484529e-06 37.86347 -3.610294e-06 -7.571289 -17.25599 -3.47463 -6.259559 9.029942 -23.08109 -3.439936e-06 5.12595 -8.180495e-07 6.034138 -17.61202 24.52731 -3.070709 -2.477557 3.971442 2.470534 8.530608 -7.471383 1.364662 21.98026 6.740606 2.863812 -24.2934 9.356298 5.680442 -20.2805 11.28582 85.13666 35.07975 -17.34434 -1.715351e-06 2.984298e-07 18.02251 -5.8047 8.648429 4.323916 4.958573 -18.32394 -1.619873 -96.12455 30.43331 25.49746 -4.134997e-07 -1.228529e-06 -13.985 2.951809 17.33538 10.28825
0.7600069 103.599 2.944468 0.07737412 -0.6558388 0.6157158 4.615153 -18.7542 8.87325 4.8565e-06 38.37076 -3.309148e-06 -7.231534 -16.07081 -3.576952 -6.300819 10.60051 -22.98196 -3.335998e-06 5.020667 -1.100882e-06 5.975234 -18.18231 24.09726 -3.136199 -2.548935 3.833226 2.532781 8.680423 -7.773839 1.265933 21.81381 6.94511 3.01817 -24.41849 9.358677 5.912412 -20.03277 11.3712 85.82623 35.32115 -18.37446 -1.683843e-06 6.021426e-08 17.45293 -6.025413 8.873669 4.343898 5.056411 -18.72943 -1.798735 -95.5868 30.3468 24.72476 -4.269167e-07 -1.363774e-06 -15.07772 3.000646 17.02011 10.31517
1.124583 103.6428 4.630378 0.05570165 -0.2370456 0.9561602 4.668344 -20.71527 8.571247 3.977982e-06 37.14986 -2.752265e-06 -7.055811 -14.90221 -3.506231 -6.272167 11.91629 -22.64145 -3.108277e-06 4.88454 -1.30552e-06 5.802873 -18.77198 23.48778 -3.159761 -2.592052 3.694887 2.64158 8.769905 -8.08144 1.124706 21.63252 7.196038 3.225114 -24.62747 9.323947 6.072681 -19.74132 11.44985 86.46076 35.64177 -19.42885 -1.535075e-06 -5.304071e-08 16.66144 -6.348527 9.076632 4.457042 5.253832 -19.28315 -1.961224 -94.86851 30.17632 23.72178 -3.803805e-07 -1.295273e-06 -16.53834 3.223405 16.71548 10.12869
1.460292 103.5999 6.552799 -0.004038713 0.3236563 1.331202 4.735837 -22.77175 8.039867 2.927998e-06 34.50905 -2.035774e-06 -6.986081 -13.67445 -3.313816 -6.196123 13.03954 -22.0498 -2.768092e-06 4.887122 -1.431465e-06 5.44498 -19.38876 22.69289 -3.148767 -2.591472 3.555024 2.778449 8.807356 -8.390234 0.9539593 21.4687 7.492481 3.485057 -24.88265 9.259947 6.170478 -19.37879 11.52119 87.15925 36.00247 -20.55971 -1.275261e-06 -5.988308e-08 15.64098 -6.823856 9.268451 4.668731 5.545801 -19.97596 -2.11663 -94.03675 29.94231 22.4643 -2.742633e-07 -1.045728e-06 -18.35812 3.556734 16.37629 9.816993
1.760227 103.4212 8.738383 -0.1030015 0.9809043 1.717977 4.808358 -24.65478 7.355815 1.894511e-06 30.76854 -1.315359e-06 -7.046836 -12.56274 -3.000474 -6.082245 13.81195 -21.297 -2.361089e-06 4.988706 -1.462898e-06 4.981479 -19.92237 21.80443 -3.102929 -2.558547 3.431507 2.931605 8.78496 -8.66003 0.769445 21.30706 7.792811 3.761432 -25.1564 9.166665 6.202789 -18.99174 11.57286 87.70274 36.38689 -21.57192 -9.362371e-07 3.204006e-08 14.52593 -7.34128 9.414596 4.934157 5.882486 -20.69863 -2.236108 -93.11412 29.65976 21.12465 -1.184524e-07 -6.576277e-07 -20.269 3.971449 16.04823 9.390995
2.021031 103.0955 11.22545 -0.2177306 1.646671 2.105873 4.861763 -26.38493 6.599475 8.959482e-07 26.62498 -6.475534e-07 -7.145433 -11.42245 -2.649875 -5.966282 14.38771 -20.41892 -1.921261e-06 5.489541 -1.408161e-06 4.357627 -20.36551 20.82726 -3.037843 -2.489581 3.322077 3.079436 8.736565 -8.899402 0.5841553 21.17397 8.100891 4.057918 -25.41434 9.057165 6.216674 -18.54808 11.61673 88.24877 36.77509 -22.56351 -5.376961e-07 1.702629e-07 13.31643 -7.927404 9.540688 5.236522 6.234521 -21.43023 -2.340067 -92.19348 29.36464 19.7152 6.173574e-08 -1.942315e-07 -22.22562 4.37758 15.67228 8.979865
2.246088 102.6457 14.01574 -0.3231427 2.181072 2.485146 4.886661 -27.70503 5.900128 5.607869e-08 22.8727 -1.186151e-07 -7.233634 -10.35276 -2.349374 -5.868674 14.73846 -19.52789 -1.529313e-06 6.507998 -1.276888e-06 3.619998 -20.62531 19.87787 -2.961051 -2.386683 3.236935 3.18957 8.675194 -9.068948 0.4330158 21.08904 8.364043 4.32639 -25.5802 8.942264 6.213392 -18.07589 11.63861 88.70714 37.0785 -23.39711 -1.43123e-07 3.199246e-07 12.15596 -8.503875 9.630018 5.515759 6.53676 -22.04638 -2.423998 -91.35065 29.11167 18.38459 2.291794e-07 2.597131e-07 -23.9247 4.6843 15.27103 8.679761
2.453225 102.162 17.13476 -0.3897609 2.508605 2.859567 4.871006 -28.42043 5.356378 -7.623375e-07 20.40641 3.326601e-07 -7.206778 -9.129125 -2.139312 -5.840533 14.80747 -18.63562 -1.187193e-06 8.471344 -1.037229e-06 2.724798 -20.59958 18.95983 -2.887519 -2.261799 3.209957 3.230322 8.672575 -9.167657 0.3138611 21.05769 8.598469 4.587552 -25.6468 8.819742 6.272251 -17.58851 11.67837 89.18864 37.32435 -24.10916 2.463771e-07 4.087938e-07 11.11002 -9.142862 9.734268 5.803357 6.727245 -22.51059 -2.516703 -90.74374 28.91333 17.30052 3.242894e-07 6.418857e-07 -25.2403 4.781338 14.75978 8.65769
2.664211 101.7854 20.57135 -0.4206509 2.584489 3.229166 4.859217 -28.28727 5.038226 -1.573292e-06 19.64051 7.241536e-07 -7.141664 -7.760703 -2.000364 -5.882861 14.4815 -17.81866 -9.708879e-07 11.63832 -6.305551e-07 1.77095 -20.11856 18.13503 -2.803881 -2.138957 3.250771 3.193504 8.752853 -9.162816 0.2344845 21.05266 8.770877 4.818048 -25.61009 8.680356 6.392429 -17.11225 11.73412 89.47711 37.50209 -24.54767 6.1922e-07 4.265308e-07 10.21838 -9.73332 9.821031 6.043198 6.734955 -22.73968 -2.619522 -90.31631 28.76626 16.61641 2.938062e-07 9.281314e-07 -25.91424 4.692904 14.20091 8.867988
2.889398 101.6476 24.30084 -0.4278631 2.391 3.577103 4.934324 -27.33013 4.983244 -2.303062e-06 20.17242 1.045108e-06 -7.083587 -6.452327 -1.963824 -5.937099 13.74613 -17.07306 -9.244036e-07 16.16864 -8.681909e-08 0.7791296 -19.13712 17.42747 -2.675688 -2.021418 3.36641 3.094241 8.923833 -9.064141 0.2076721 21.07291 8.842099 4.986968 -25.4589 8.515759 6.532942 -16.67583 11.80668 89.58377 37.55115 -24.73641 9.35874e-07 3.83826e-07 9.504024 -10.21796 9.910951 6.1859 6.562521 -22.75922 -2.735771 -90.05476 28.65329 16.32664 1.407997e-07 1.098778e-06 -25.9912 4.456799 13.64518 9.24901
3.123468 101.8416 28.30171 -0.4382507 1.974569 3.855132 5.194518 -25.45872 5.186631 -2.847835e-06 20.98179 1.264768e-06 -7.094149 -5.5666 -2.006654 -5.905004 12.33001 -16.31228 -1.044564e-06 22.27167 6.002705e-07 -0.294854 -17.57677 16.84277 -2.45364 -1.897198 3.59977 2.959311 9.175692 -8.875846 0.234482 21.12741 8.78278 5.078985 -25.2113 8.305808 6.650753 -16.33548 11.91264 89.5424 37.47327 -24.68323 1.186604e-06 3.305402e-07 9.02742 -10.58437 10.0427 6.230958 6.243824 -22.62626 -2.841869 -90.04859 28.54732 16.46972 -9.732252e-08 1.183029e-06 -25.60483 4.10897 13.12242 9.745995
3.3382 102.431 32.50772 -0.477666 1.368919 3.992137 5.694231 -22.78901 5.637373 -3.038588e-06 21.41886 1.299017e-06 -7.274191 -5.418095 -2.127606 -5.718613 10.28254 -15.57641 -1.449386e-06 29.89235 1.470257e-06 -1.390242 -15.43987 16.43031 -2.110641 -1.761848 3.931166 2.8215 9.458465 -8.598905 0.3282337 21.20732 8.552643 5.058419 -24.86326 8.052131 6.694809 -16.08331 12.0239 89.22738 37.25074 -24.35661 1.341214e-06 3.219096e-07 8.762396 -10.67187 10.17989 6.08263 5.800318 -22.34059 -2.905958 -90.17847 28.46108 16.95791 -3.948238e-07 1.19443e-06 -24.78506 3.727471 12.72872 10.22525
